<svg width="777" height="418" viewBox="0 0 777 418" fill="none" xmlns="http://www.w3.org/2000/svg">
<path d="M743.468 287.188L741.041 309.524L735.017 365H614C614.945 352.566 616.237 334.669 617.617 315.349C617.753 313.419 617.896 311.477 618.032 309.524C621.493 260.958 625.28 206 625.28 206L641.189 209.425L672.057 216.058L684.636 218.76L718.318 226.008C735.112 229.614 746.663 257.714 743.468 287.188Z" fill="#F2F2F2"/>
<path d="M651.047 116L666 146.365L637.26 170L625 132.676L651.047 116Z" fill="#FFB6B6"/>
<path d="M632 144C652.435 144 669 124.972 669 101.5C669 78.0279 652.435 59 632 59C611.565 59 595 78.0279 595 101.5C595 124.972 611.565 144 632 144Z" fill="#FFB6B6"/>
<path d="M629.014 111.213C626.081 106.087 627.232 103.405 624.777 101.521C624.777 101.521 623.789 100.763 616.717 100.33C615.133 87.2425 613.157 85.6553 613.157 85.6553C610.879 83.826 607.498 84.4204 605.395 85.5392C600.947 87.9054 601.463 93.0167 598.468 93.9948C594.331 95.3459 586.803 87.7289 586.062 79.009C585.457 71.8959 589.447 64.9874 591.03 65.3529C592.599 65.7152 596.356 60.2067 598.384 60.2917C599.77 60.3497 605.43 57.5242 606.952 57.7451C608.615 57.9864 614.098 61.2725 614.327 60.5217C615.914 55.3045 615.448 53.857 616.795 52.3645C619.182 49.7197 623.087 51.5614 629.213 52.5502C641.818 54.5846 644.018 49.811 650.478 53.0466C653.741 54.681 656.472 59.0889 661.8 67.8379C669.251 80.0732 672.976 86.1909 673 93.3264C673.024 100.603 669.956 100.141 668.608 110.914C667.108 122.906 670.296 128.389 666.814 132.285C664.122 135.296 658.652 136.011 655.778 133.368C650.857 128.844 657.297 117.926 651.851 109.95C648.509 105.054 641.787 102.875 638.707 105.296C635.225 108.032 637.143 116.065 634.695 116.826C632.598 117.478 629.525 112.107 629.014 111.213Z" fill="#2F2E41"/>
<path d="M714.755 279.349C713.723 299.71 709.625 306.138 708.189 330.183C707.876 335.463 707.687 341.59 707.687 348.898C707.687 350.761 707.696 352.563 707.696 354.323C707.696 358.069 707.634 361.61 707.256 365.201C706.97 368.069 706.477 370.957 705.66 374H625.981C625.972 373.979 625.972 373.959 625.962 373.938C625.496 371.599 625.2 369.363 624.976 367.22C624.904 366.537 624.841 365.864 624.788 365.201C624.716 364.425 624.653 363.659 624.59 362.904C624.348 359.891 624.106 357.045 623.531 354.323C622.761 350.565 621.361 347.025 618.49 343.609C617.316 342.212 616.141 341.125 614.993 340.173C614.768 339.996 614.553 339.82 614.329 339.644C611.153 337.129 608.149 335.318 605.547 330.183C605.502 330.111 605.466 330.028 605.43 329.956C604.982 329.055 603.816 326.695 602.973 323.549C602.084 320.277 601.546 316.168 602.515 311.966C604.821 302.008 613.36 301.014 620.339 290.952C621.092 289.866 621.836 288.665 622.545 287.33C625.702 281.408 626.554 276.192 627.559 269.991C627.72 268.987 627.864 267.993 627.98 267.031C628.071 266.306 628.151 265.592 628.214 264.888C628.77 258.978 628.501 253.885 627.846 249.33C625.712 234.414 619.414 225.181 623.863 211.797C625.263 207.595 627.246 204.437 629.245 201.736C633.479 196.011 637.83 192.295 637.076 184.905C636.314 177.452 631.416 176.427 630.869 169.916C630.591 166.625 631.524 163.157 633.273 159.751V159.741C638.87 148.779 652.846 138.687 661.725 139.007C663.367 139.06 664.82 139.484 666.031 140.301C670.417 143.282 668.588 149.793 675.306 158.923C680.302 165.703 685.953 168.415 688.097 169.699C696.591 174.813 703.498 189.894 708.189 209.178C708.225 209.323 708.261 209.468 708.297 209.623C711.195 221.703 713.24 235.419 714.253 249.33C714.684 255.22 714.935 261.141 714.988 267C715.034 271.678 714.944 275.737 714.755 279.349Z" fill="#B9F3FC"/>
<path d="M655.952 348.921L654.328 354.13L653.306 357.395L650.938 364.991L648.193 373.775H630.551L633.51 364.991L634.883 360.899L637.161 354.13L640.982 342.762L655.952 348.921Z" fill="#FFB6B6"/>
<path d="M709.328 207.441C709.284 208.113 709.22 208.857 709.157 209.663C708.458 217.869 706.807 232.554 704.395 249.306C703.122 258.142 701.632 267.557 699.955 276.91C696.35 297.093 691.865 316.966 686.797 330.029C685.892 332.385 684.959 334.514 684.007 336.395C683.281 337.832 682.518 339.247 681.72 340.642C679.137 345.221 676.24 349.561 673.236 353.612C673.119 353.788 672.984 353.954 672.85 354.129C672.366 354.79 671.863 355.442 671.361 356.093C668.903 359.286 666.392 362.262 663.961 364.99C661.002 368.318 658.149 371.264 655.593 373.775H626.945L626.828 373.713L622.703 371.604C622.703 371.604 623.877 370.013 625.842 367.006C626.246 366.396 626.676 365.724 627.143 364.99C627.716 364.091 628.336 363.099 628.999 362.024C630.38 359.772 631.95 357.126 633.636 354.129C636.901 348.331 640.623 341.2 644.381 332.943C644.812 331.982 645.251 331.011 645.691 330.029C645.7 329.998 645.718 329.967 645.727 329.936C646.471 328.262 647.207 326.536 647.942 324.779C654.176 309.835 655.961 297.434 656.472 293.414C657.19 287.73 658.185 279.782 657.916 271.039C657.736 265.273 657.01 259.175 655.279 253.12V253.109C654.92 251.838 654.516 250.567 654.059 249.306C653.243 247.043 652.274 244.811 651.126 242.609C646.059 232.916 641.942 232.513 638.668 221.951C637.699 218.819 635.501 211.751 636.174 204.289V204.279C636.256 203.359 636.39 202.429 636.569 201.499V201.488C636.614 201.23 636.677 200.962 636.74 200.703C637.251 198.419 638.094 196.156 639.376 194.006C641.879 189.831 645.296 187.351 648.354 185.873L648.364 185.863C651.898 184.168 654.947 183.806 655.54 183.744C668.643 182.401 678.805 195.091 684.358 202.026C686.501 204.702 688.466 206.945 690.26 208.774C704.224 223.139 708.055 213.962 709.05 209.219C709.202 208.485 709.284 207.855 709.328 207.441Z" fill="#B9F3FC"/>
<path d="M709.373 206.904C709.373 206.956 709.364 207.131 709.328 207.421C709.346 207.266 709.356 207.111 709.364 206.966C709.364 206.935 709.364 206.914 709.373 206.904Z" fill="#B9F3FC"/>
<path d="M211 117.798L241.093 103L254 133.918L222.377 149L211 117.798Z" fill="#FFB6B6"/>
<path opacity="0.1" d="M211 117.798L241.093 103L254 133.918L222.377 149L211 117.798Z" fill="black"/>
<path d="M215.07 106L245 145.75C245 145.75 224.179 221.5 203.358 228.25C182.537 235 144.148 268 144.148 268L96 232L119.424 192.25C119.424 192.25 176.031 103 190.996 103C205.961 103 215.07 106 215.07 106Z" fill="#B9F3FC"/>
<path d="M175 365H105.333L100.928 358.194L82.9453 330.408L78.8074 324.016C78.8074 324.016 63.1928 290.928 66.4459 260.848C69.6989 230.768 103.531 224 103.531 224H104.923L146.341 266.067L143.868 305.216L156.985 330.408L175 365Z" fill="#2F2E41"/>
<path d="M119 365H101V334L119 365Z" fill="#2F2E41"/>
<path d="M521.493 317.041L519.177 330.807L513.431 365H398C398.901 357.336 400.134 346.305 401.45 334.397C401.58 333.208 401.716 332.011 401.846 330.807C405.147 300.873 408.759 267 408.759 267L423.935 269.111L453.378 273.199L465.375 274.864L497.503 279.332C513.522 281.554 524.541 298.874 521.493 317.041Z" fill="#F2F2F2"/>
<path d="M685 365H623C623.944 363.704 624.477 362.954 624.477 362.954L643.063 359.373L681.359 352C681.359 352 683.105 357.267 685 365Z" fill="#2F2E41"/>
<path d="M419.561 133L447 177.366L399.138 179L394 137.307L419.561 133Z" fill="#A0616A"/>
<path opacity="0.1" d="M419.561 133L447 177.366L399.138 179L394 137.307L419.561 133Z" fill="black"/>
<path d="M284.732 224.995C281.112 213.314 272.791 205.936 266.147 208.514C259.502 211.092 257.052 222.649 260.674 234.333C262.064 239.023 264.437 243.272 267.595 246.725L283.49 296L304 287.163L286.154 239.525C286.724 234.624 286.236 229.642 284.732 224.995Z" fill="#A0616A"/>
<path d="M469 201.885L468.963 247.346L465.304 264.138L457.778 298.675L452.3 330.44L448.218 354.106L446.763 362.558C445.664 363.407 444.572 364.219 443.481 365H348.422C343.022 361.251 340 358.336 340 358.336C340 358.336 341.495 356.713 343.204 354.106C346.089 349.704 349.579 342.491 347.441 335.602C346.993 334.159 346.876 332.401 347.012 330.44C347.883 317.503 359.62 295.625 359.62 295.625L357.189 263.154L356.124 248.924L363.638 179.541L388.132 163.08L392.361 162.607L434.103 160L451.356 161.149L452.142 161.397L469 201.885Z" fill="#CCCCCC"/>
<path d="M471.259 364.991H450.464L449.548 354.134L449.529 353.917L455.416 353.453L470.733 352.247L471 358.746L471.207 363.733L471.259 364.991Z" fill="#FFB6B6"/>
<path d="M476.379 213.382L485.114 272.436L477.986 330.547L476.874 339.592L474.912 355.563L474.308 360.475L474.327 361.007L474.477 364.99H449.782L448.872 354.133L448.795 353.16L446.936 330.922L446.904 330.547L442.959 283.391L450.692 249.307L451.264 246.799V246.791L454.629 188.433L452.023 161.912L451.997 161.665C452.049 161.703 452.094 161.74 452.146 161.777C452.283 161.875 452.419 161.972 452.549 162.077C467.73 173.174 476.775 192.641 476.379 213.382Z" fill="#CCCCCC"/>
<path d="M373 191.383L363.475 180C363.475 180 343.085 190.621 342.068 196.513C341.052 202.405 305.051 288.945 305.051 288.945L289.388 240.613L269 256.34C269 256.34 285.359 331.379 300.659 334.902C315.958 338.425 367.235 246.086 367.235 246.086L373 191.383Z" fill="#CCCCCC"/>
<path d="M758.023 330H18.9678C8.50696 330 0 339.875 0 352.005C0 364.135 8.50695 374 18.9678 374H758.023C768.484 374 777 364.136 777 352.005C777 339.874 768.484 330 758.023 330Z" fill="#E6E6E6"/>
<path d="M464.997 263.945L463.563 340.64C463.425 348.064 458.134 354 451.655 354H328.569C322.244 354 317.021 348.333 316.676 341.093L313.018 264.398C312.645 256.576 318.077 250 324.911 250H453.089C459.767 250 465.14 256.292 464.997 263.945Z" fill="#3F3D56"/>
<path d="M266 136C282.569 136 296 120.778 296 102C296 83.2223 282.569 68 266 68C249.431 68 236 83.2223 236 102C236 120.778 249.431 136 266 136Z" fill="#FFB6B6"/>
<path d="M216.562 192.001L219.823 232.508L242 335.277L222.841 343L190.471 231.008L186 186L216.562 192.001Z" fill="#FFB6B6"/>
<path d="M207.997 263.945L206.563 340.64C206.425 348.064 201.134 354 194.655 354H71.569C65.2435 354 60.0213 348.333 59.676 341.093L56.0181 264.398C55.6451 256.576 61.0775 250 67.9111 250H196.089C202.767 250 208.14 256.292 207.997 263.945Z" fill="#3F3D56"/>
<path d="M245 355C257.703 355 268 349.404 268 342.5C268 335.596 257.703 330 245 330C232.297 330 222 335.596 222 342.5C222 349.404 232.297 355 245 355Z" fill="#FFB6B6"/>
<path d="M171 197.843L184.304 116.249C184.304 116.249 221.296 110.274 222.594 124.464C223.891 138.653 221.666 208 221.666 208L171 197.843Z" fill="#B9F3FC"/>
<path d="M254.445 108.074C254.445 108.074 272.791 100.535 280.529 96.4789C288.268 92.4227 303.642 120.715 303.984 105.773C304.326 90.8308 299.014 84.5648 299.014 84.5648C299.014 84.5648 297.687 51.8772 269.085 55.9639C269.085 55.9639 275.376 39.6099 254.725 37.0811C234.074 34.5522 201.946 91.971 204.823 100.552C207.701 109.133 211.15 116.227 202.987 125.402C194.823 134.577 179.538 186.358 191.168 200.292C202.798 214.226 203.561 220.272 195.593 228.941C187.624 237.609 168.789 256.458 189.154 259.73C209.519 263.002 187.291 260.558 202.473 245.182C217.656 229.806 239.811 230.434 231.538 205.763C223.266 181.093 237.638 145.741 235.84 140.378C234.041 135.015 239.869 100.959 239.869 100.959C239.869 100.959 253.431 98.6648 254.445 108.074Z" fill="#2F2E41"/>
<path d="M404.687 149.061C422.439 149.061 436.831 132.479 436.831 112.025C436.831 91.5701 422.439 74.9883 404.687 74.9883C386.934 74.9883 372.543 91.5701 372.543 112.025C372.543 132.479 386.934 149.061 404.687 149.061Z" fill="#A0616A"/>
<path d="M407.252 62.2312C406.322 62.8568 405.076 61.9103 404.778 60.7179C404.48 59.5255 404.827 58.2595 405.172 57.0838L406.906 51.165C408.136 46.9673 409.441 42.623 412.105 39.428C416.126 34.6057 422.516 33.3789 428.268 34.2676C435.655 35.409 442.944 40.0178 446.379 47.6391C449.813 55.2604 448.351 65.8948 442.145 70.6497C450.99 82.3312 454.073 95.3498 453.587 110.842C453.1 126.335 438.447 140.593 428.892 151.506C426.758 150.016 424.818 143.031 425.991 140.494C427.165 137.956 425.483 135.017 426.937 132.679C428.39 130.342 429.606 134.064 428.136 131.74C427.209 130.273 430.828 126.899 429.45 126.022C422.784 121.776 420.567 112.203 416.381 104.873C411.331 96.0303 402.689 90.0422 393.543 89.0488C388.504 88.5015 383.183 89.4927 379.053 92.8628C374.924 96.233 372.25 102.255 373.208 107.981C370.728 105.079 369.493 100.827 369.959 96.7904C370.425 92.7535 372.58 89.0205 375.632 86.9661C373.776 79.8959 375.366 71.763 379.673 66.2918C383.98 60.8206 401.451 61.7524 407.738 63.1924L407.252 62.2312Z" fill="#2F2E41"/>
<path d="M408.229 89.2637C416.556 90.2995 422.569 98.6113 427.647 106.287C430.573 110.711 433.639 115.597 433.565 121.159C433.491 126.783 430.228 131.606 428.668 136.935C426.119 145.646 428.604 156.01 434.672 161.979C428.676 163.29 422.194 158.11 421.159 151.18C419.954 143.113 425.262 135.327 424.633 127.173C424.079 119.99 419.166 114.461 414.989 109.09C410.813 103.719 406.89 96.5919 408.811 89.7285L408.229 89.2637Z" fill="#2F2E41"/>
<path d="M532.729 334.711C524.481 340.117 520.215 349.403 523.202 355.451C526.189 361.499 535.295 362.018 543.547 356.609C546.868 354.5 549.703 351.506 551.815 347.876L586.515 324.462L576.632 305.935L543.473 330.983C539.685 331.219 536.001 332.498 532.729 334.711Z" fill="#FFB6B6"/>
<path d="M650.216 163.017C649.179 162.544 640.08 158.573 631.774 163.815C622.232 169.836 620.758 183.581 620.241 188.402C619.047 199.539 622.565 202.035 623.308 213.309C624.697 234.402 628.36 210.339 622.51 219.967C620.485 223.3 599.802 274.944 588.396 285.06C566.211 304.734 552.124 318.59 552.124 318.59L568.207 338.719C568.207 338.719 593.62 330.917 616.081 314.112C639.122 296.874 650.642 288.255 659.555 271.394C660.323 269.942 678.687 234.008 668.825 194.274C666.575 185.211 662.453 168.605 650.216 163.017Z" fill="#B9F3FC"/>
<path d="M733.997 263.945L732.554 340.64C732.414 348.064 727.089 354 720.568 354H596.671C590.304 354 585.048 348.333 584.7 341.093L581.018 264.398C580.643 256.576 586.111 250 592.989 250H722.011C728.733 250 734.141 256.292 733.997 263.945Z" fill="#3F3D56"/>
</svg>
